<svg width="664" height="161" viewBox="0 0 664 161" fill="none" xmlns="http://www.w3.org/2000/svg">
<path d="M85.5855 42.2445C88.2857 40.1718 91.1552 39.2444 94.3583 41.0729C95.8762 41.9394 97.0563 43.234 98.3056 44.4333C101.688 47.6807 105.038 50.9789 108.781 53.8079C113.195 57.1445 116.306 61.2243 117.037 66.8451C117.191 68.0331 117.811 68.5712 118.988 68.7985C121.876 69.3558 124.312 70.8339 126.349 72.9131C131.15 77.8145 131.505 88.1769 127.158 94.277C125.354 96.8076 122.905 98.5062 120.14 99.7706C118.951 100.314 118.776 100.966 119.421 102.019C120.09 103.111 120.546 104.304 120.892 105.532C122.102 109.832 122.281 114.023 119.174 117.683C115.042 122.551 109.658 124.242 103.434 123.646C102.713 123.576 101.986 123.284 101.089 123.747C103.655 126.283 106.367 128.187 109.904 128.474C116.007 128.969 122.128 128.834 128.241 128.758C132.389 128.706 135.263 125.838 135.524 121.782C135.57 121.071 135.548 120.356 135.543 119.642C135.469 107.921 135.39 96.2007 135.326 84.4799C135.323 83.8962 135.105 83.1379 135.794 82.8337C136.41 82.562 136.795 83.201 137.204 83.5464C138.761 84.8609 140.251 86.2584 141.848 87.5208C144.497 89.6139 147.6 89.5027 150.085 87.3264C152.906 84.8547 153.781 81.0131 152.135 78.2444C151.476 77.1348 150.492 76.3064 149.586 75.4124C145.343 71.2245 141.12 67.0169 136.848 62.8582C135.717 61.7573 135.204 60.5702 135.217 58.9506C135.285 50.7458 135.254 42.54 135.24 34.3347C135.236 31.9662 134.152 30.8809 131.782 30.8407C129.845 30.8079 127.908 30.8167 125.972 30.8198C122.813 30.8249 121.684 31.8832 121.701 35.0062C121.719 38.2636 121.878 41.52 121.908 44.7775C121.916 45.6508 122.409 46.9265 121.504 47.3145C120.512 47.7399 119.9 46.4942 119.258 45.8407C111.226 37.6609 103.219 29.4568 95.2027 21.2612C92.3619 18.3569 89.3936 18.2367 86.6535 20.9795C80.2807 27.3584 73.9357 33.7652 67.5765 40.1579C60.1029 47.6709 52.6409 55.1957 45.1454 62.687C40.4962 67.3334 35.7587 71.8917 31.1291 76.5573C28.2654 79.4432 28.3211 83.5793 31.1118 86.4151C34.4593 89.8166 37.5603 89.9157 40.9679 86.7737C42.3906 85.4619 43.8446 84.1804 45.3388 82.9512C46.3591 82.1118 46.8385 82.3536 46.9615 83.6796C47.0085 84.1856 46.9901 84.6981 46.991 85.2077C47.0064 94.0246 47.0221 102.842 47.0334 111.659C47.0382 115.328 46.9488 118.999 47.0565 122.666C47.1601 126.194 49.8868 128.747 53.4185 128.769C59.6867 128.809 65.9546 128.766 72.2187 128.501C75.2691 128.371 77.7823 127.005 80.0285 125.053C80.319 124.801 80.7041 124.546 80.5165 123.977C80.4839 123.95 80.4084 123.833 80.3291 123.831C79.519 123.804 78.703 123.731 77.8985 123.794C73.3143 124.156 69.2136 122.824 65.5754 120.129C62.8224 118.089 60.9835 115.415 60.5612 111.886C60.1439 108.399 60.6815 105.084 62.17 101.926C62.7899 100.61 62.6166 99.7987 61.1347 99.2298C58.9554 98.3931 57.1772 96.9539 55.7507 95.0848C53.7339 92.4421 52.8775 89.3825 52.5057 86.1518C51.5066 77.4701 55.484 70.8641 63.4484 68.8304C64.869 68.4677 65.4166 67.6305 65.5222 66.2446C65.8415 62.0563 67.8329 58.6253 70.8456 55.885C75.7446 51.4289 80.7768 47.1199 85.5855 42.2445ZM102.583 91.7583C101.351 89.9483 100.212 88.0739 98.7778 86.4063C94.874 81.8672 89.6502 81.1182 84.8977 84.4194C82.9665 85.761 81.684 87.6641 80.4114 89.5734C77.4186 94.0634 74.5339 98.5956 70.2099 102.049C67.219 104.437 66.7091 107.94 67.3414 111.532C68.0345 115.468 71.2453 117.932 75.223 118.11C78.3987 118.253 81.2241 117.152 84.0721 116.058C88.7003 114.281 93.3135 114.305 97.9548 115.997C100.298 116.852 102.662 117.635 105.158 117.96C109.901 118.578 113.88 115.953 114.62 111.352C115.244 107.476 114.392 103.856 111.101 101.347C107.677 98.7364 105.002 95.524 102.583 91.7583ZM107.881 74.0312C110.088 69.914 110.58 65.6276 108.902 61.2333C107.146 56.634 102.166 55.0365 98.3083 57.8331C92.8706 61.7754 91.927 70.1308 94.9583 75.183C96.3526 77.5067 98.5139 78.5428 101.264 78.4323C104.296 78.3106 106.204 76.5597 107.881 74.0312ZM86.0086 76.9615C90.6941 72.2758 89.9274 62.7362 84.5144 58.3692C80.6949 55.2877 76.3864 56.0974 73.9551 60.3534C71.4774 64.6909 72.1887 71.3799 75.5402 75.4298C77.96 78.3537 81.9956 79.8437 86.0086 76.9615ZM123.385 77.1244C120.599 73.5306 117.065 72.8962 113.389 75.5158C110.059 77.8882 107.941 81.1162 107.338 85.223C106.83 88.6825 108.452 92.3426 111.09 93.8214C113.846 95.3658 117.203 94.8261 120.141 92.3664C124.308 88.8779 125.772 82.3246 123.385 77.1244ZM64.2639 73.8964C61.2774 74.0813 59.3582 75.7359 58.3432 78.4251C56.4103 83.5463 58.7865 90.5208 63.4449 93.3541C65.8403 94.811 68.4275 95.1485 71.0017 93.7927C73.606 92.421 74.6763 90.0823 74.6934 87.2412C74.7007 86.0281 74.6186 84.7864 74.3608 83.6049C73.3646 79.0374 69.6348 74.1593 64.2639 73.8964Z" fill="url(#paint0_linear_8_18)"/>
<path d="M186.432 110V102.699L215.466 61.9602H186.375V51.8182H230.92V59.1193L201.858 99.858H230.977V110H186.432ZM236.189 110V66.3636H248.291V110H236.189ZM242.268 60.7386C240.469 60.7386 238.926 60.142 237.638 58.9489C236.369 57.7367 235.734 56.2879 235.734 54.6023C235.734 52.9356 236.369 51.5057 237.638 50.3125C238.926 49.1004 240.469 48.4943 242.268 48.4943C244.068 48.4943 245.602 49.1004 246.871 50.3125C248.159 51.5057 248.803 52.9356 248.803 54.6023C248.803 56.2879 248.159 57.7367 246.871 58.9489C245.602 60.142 244.068 60.7386 242.268 60.7386ZM273.645 127.273C269.724 127.273 266.363 126.733 263.56 125.653C260.776 124.593 258.56 123.144 256.912 121.307C255.264 119.47 254.194 117.405 253.702 115.114L264.895 113.608C265.236 114.479 265.776 115.294 266.514 116.051C267.253 116.809 268.228 117.415 269.44 117.869C270.671 118.343 272.168 118.58 273.929 118.58C276.562 118.58 278.73 117.936 280.435 116.648C282.158 115.379 283.02 113.248 283.02 110.256V102.273H282.509C281.978 103.485 281.183 104.631 280.122 105.71C279.062 106.79 277.698 107.67 276.031 108.352C274.365 109.034 272.376 109.375 270.065 109.375C266.789 109.375 263.806 108.617 261.116 107.102C258.446 105.568 256.315 103.229 254.724 100.085C253.152 96.9223 252.366 92.9261 252.366 88.0966C252.366 83.1534 253.171 79.0246 254.781 75.7102C256.391 72.3958 258.531 69.9148 261.202 68.267C263.891 66.6193 266.836 65.7955 270.037 65.7955C272.48 65.7955 274.526 66.2121 276.173 67.0455C277.821 67.8598 279.147 68.8826 280.151 70.1136C281.173 71.3258 281.959 72.5189 282.509 73.6932H282.963V66.3636H294.98V110.426C294.98 114.138 294.071 117.244 292.253 119.744C290.435 122.244 287.916 124.119 284.696 125.369C281.495 126.638 277.812 127.273 273.645 127.273ZM273.901 100.284C275.851 100.284 277.499 99.8011 278.844 98.8352C280.207 97.8504 281.249 96.4489 281.969 94.6307C282.707 92.7936 283.077 90.5966 283.077 88.0398C283.077 85.483 282.717 83.267 281.997 81.392C281.277 79.4981 280.236 78.0303 278.872 76.9886C277.509 75.947 275.851 75.4261 273.901 75.4261C271.912 75.4261 270.236 75.9659 268.872 77.0455C267.509 78.1061 266.476 79.5833 265.776 81.4773C265.075 83.3712 264.724 85.5587 264.724 88.0398C264.724 90.5587 265.075 92.7367 265.776 94.5739C266.495 96.392 267.527 97.803 268.872 98.8068C270.236 99.7917 271.912 100.284 273.901 100.284ZM320.27 127.273C316.349 127.273 312.988 126.733 310.185 125.653C307.401 124.593 305.185 123.144 303.537 121.307C301.889 119.47 300.819 117.405 300.327 115.114L311.52 113.608C311.861 114.479 312.401 115.294 313.139 116.051C313.878 116.809 314.853 117.415 316.065 117.869C317.296 118.343 318.793 118.58 320.554 118.58C323.187 118.58 325.355 117.936 327.06 116.648C328.783 115.379 329.645 113.248 329.645 110.256V102.273H329.134C328.603 103.485 327.808 104.631 326.747 105.71C325.687 106.79 324.323 107.67 322.656 108.352C320.99 109.034 319.001 109.375 316.69 109.375C313.414 109.375 310.431 108.617 307.741 107.102C305.071 105.568 302.94 103.229 301.349 100.085C299.777 96.9223 298.991 92.9261 298.991 88.0966C298.991 83.1534 299.796 79.0246 301.406 75.7102C303.016 72.3958 305.156 69.9148 307.827 68.267C310.516 66.6193 313.461 65.7955 316.662 65.7955C319.105 65.7955 321.151 66.2121 322.798 67.0455C324.446 67.8598 325.772 68.8826 326.776 70.1136C327.798 71.3258 328.584 72.5189 329.134 73.6932H329.588V66.3636H341.605V110.426C341.605 114.138 340.696 117.244 338.878 119.744C337.06 122.244 334.541 124.119 331.321 125.369C328.12 126.638 324.437 127.273 320.27 127.273ZM320.526 100.284C322.476 100.284 324.124 99.8011 325.469 98.8352C326.832 97.8504 327.874 96.4489 328.594 94.6307C329.332 92.7936 329.702 90.5966 329.702 88.0398C329.702 85.483 329.342 83.267 328.622 81.392C327.902 79.4981 326.861 78.0303 325.497 76.9886C324.134 75.947 322.476 75.4261 320.526 75.4261C318.537 75.4261 316.861 75.9659 315.497 77.0455C314.134 78.1061 313.101 79.5833 312.401 81.4773C311.7 83.3712 311.349 85.5587 311.349 88.0398C311.349 90.5587 311.7 92.7367 312.401 94.5739C313.12 96.392 314.152 97.803 315.497 98.8068C316.861 99.7917 318.537 100.284 320.526 100.284ZM354.707 126.364C353.173 126.364 351.734 126.241 350.389 125.994C349.063 125.767 347.965 125.473 347.094 125.114L349.821 116.08C351.241 116.515 352.52 116.752 353.656 116.79C354.812 116.828 355.806 116.563 356.639 115.994C357.491 115.426 358.183 114.46 358.713 113.097L359.423 111.25L343.77 66.3636H356.497L365.531 98.4091H365.986L375.105 66.3636H387.918L370.957 114.716C370.143 117.064 369.035 119.11 367.634 120.852C366.251 122.614 364.499 123.968 362.378 124.915C360.257 125.881 357.7 126.364 354.707 126.364ZM421.901 68.5511C421.673 66.2595 420.698 64.4792 418.974 63.2102C417.251 61.9413 414.912 61.3068 411.957 61.3068C409.95 61.3068 408.255 61.5909 406.872 62.1591C405.49 62.7083 404.429 63.4754 403.69 64.4602C402.971 65.4451 402.611 66.5625 402.611 67.8125C402.573 68.8542 402.791 69.7633 403.264 70.5398C403.757 71.3163 404.429 71.9886 405.281 72.5568C406.134 73.1061 407.118 73.589 408.236 74.0057C409.353 74.4034 410.546 74.7443 411.815 75.0284L417.043 76.2784C419.58 76.8466 421.91 77.6042 424.031 78.5511C426.152 79.4981 427.99 80.6629 429.543 82.0455C431.096 83.428 432.298 85.0568 433.151 86.9318C434.022 88.8068 434.467 90.9564 434.486 93.3807C434.467 96.9413 433.558 100.028 431.759 102.642C429.978 105.237 427.402 107.254 424.031 108.693C420.679 110.114 416.635 110.824 411.901 110.824C407.204 110.824 403.113 110.104 399.628 108.665C396.162 107.225 393.454 105.095 391.503 102.273C389.571 99.4318 388.558 95.9186 388.463 91.733H400.366C400.499 93.6837 401.058 95.3125 402.043 96.6193C403.046 97.9072 404.382 98.8826 406.048 99.5455C407.734 100.189 409.637 100.511 411.759 100.511C413.842 100.511 415.651 100.208 417.185 99.6023C418.738 98.9962 419.94 98.1534 420.793 97.0739C421.645 95.9943 422.071 94.7538 422.071 93.3523C422.071 92.0455 421.683 90.947 420.906 90.0568C420.149 89.1667 419.031 88.4091 417.554 87.7841C416.096 87.1591 414.306 86.5909 412.185 86.0795L405.849 84.4886C400.944 83.2955 397.071 81.4299 394.23 78.892C391.389 76.3542 389.978 72.9356 389.997 68.6364C389.978 65.1136 390.916 62.036 392.81 59.4034C394.723 56.7708 397.346 54.7159 400.679 53.2386C404.012 51.7614 407.8 51.0227 412.043 51.0227C416.361 51.0227 420.13 51.7614 423.349 53.2386C426.588 54.7159 429.107 56.7708 430.906 59.4034C432.705 62.036 433.634 65.0852 433.69 68.5511H421.901ZM438.533 110V66.3636H450.635V110H438.533ZM444.612 60.7386C442.813 60.7386 441.269 60.142 439.982 58.9489C438.713 57.7367 438.078 56.2879 438.078 54.6023C438.078 52.9356 438.713 51.5057 439.982 50.3125C441.269 49.1004 442.813 48.4943 444.612 48.4943C446.411 48.4943 447.946 49.1004 449.214 50.3125C450.502 51.5057 451.146 52.9356 451.146 54.6023C451.146 56.2879 450.502 57.7367 449.214 58.9489C447.946 60.142 446.411 60.7386 444.612 60.7386ZM479.54 66.3636V75.4545H453.261V66.3636H479.54ZM459.227 55.9091H471.33V96.5909C471.33 97.7083 471.5 98.5795 471.841 99.2045C472.182 99.8106 472.655 100.237 473.261 100.483C473.886 100.729 474.606 100.852 475.42 100.852C475.989 100.852 476.557 100.805 477.125 100.71C477.693 100.597 478.129 100.511 478.432 100.455L480.335 109.46C479.729 109.65 478.877 109.867 477.778 110.114C476.68 110.379 475.345 110.54 473.773 110.597C470.856 110.71 468.299 110.322 466.102 109.432C463.924 108.542 462.229 107.159 461.017 105.284C459.805 103.409 459.208 101.042 459.227 98.1818V55.9091ZM506.634 66.3636V75.4545H480.355V66.3636H506.634ZM486.321 55.9091H498.423V96.5909C498.423 97.7083 498.594 98.5795 498.935 99.2045C499.276 99.8106 499.749 100.237 500.355 100.483C500.98 100.729 501.7 100.852 502.514 100.852C503.082 100.852 503.651 100.805 504.219 100.71C504.787 100.597 505.223 100.511 505.526 100.455L507.429 109.46C506.823 109.65 505.971 109.867 504.872 110.114C503.774 110.379 502.438 110.54 500.866 110.597C497.95 110.71 495.393 110.322 493.196 109.432C491.018 108.542 489.323 107.159 488.111 105.284C486.899 103.409 486.302 101.042 486.321 98.1818V55.9091ZM529.935 110.852C525.446 110.852 521.582 109.943 518.344 108.125C515.124 106.288 512.643 103.693 510.901 100.341C509.158 96.9697 508.287 92.983 508.287 88.3807C508.287 83.892 509.158 79.9527 510.901 76.5625C512.643 73.1723 515.096 70.5303 518.259 68.6364C521.44 66.7424 525.171 65.7955 529.452 65.7955C532.33 65.7955 535.01 66.2595 537.491 67.1875C539.991 68.0966 542.17 69.4697 544.026 71.3068C545.901 73.1439 547.359 75.4545 548.401 78.2386C549.442 81.0038 549.963 84.2424 549.963 87.9545V91.2784H513.116V83.7784H538.571C538.571 82.036 538.192 80.4924 537.435 79.1477C536.677 77.803 535.626 76.7519 534.281 75.9943C532.955 75.2178 531.412 74.8295 529.651 74.8295C527.813 74.8295 526.185 75.2557 524.764 76.108C523.363 76.9413 522.264 78.0682 521.469 79.4886C520.673 80.8902 520.266 82.4527 520.247 84.1761V91.3068C520.247 93.4659 520.645 95.3314 521.44 96.9034C522.255 98.4754 523.401 99.6875 524.878 100.54C526.355 101.392 528.107 101.818 530.134 101.818C531.478 101.818 532.709 101.629 533.827 101.25C534.944 100.871 535.901 100.303 536.696 99.5455C537.491 98.7879 538.098 97.8598 538.514 96.7614L549.707 97.5C549.139 100.189 547.974 102.538 546.213 104.545C544.471 106.534 542.217 108.087 539.452 109.205C536.705 110.303 533.533 110.852 529.935 110.852ZM553.861 110V66.3636H565.594V73.9773H566.048C566.844 71.2689 568.179 69.2235 570.054 67.8409C571.929 66.4394 574.088 65.7386 576.531 65.7386C577.137 65.7386 577.791 65.7765 578.491 65.8523C579.192 65.928 579.808 66.0322 580.338 66.1648V76.9034C579.77 76.733 578.984 76.5814 577.98 76.4489C576.976 76.3163 576.058 76.25 575.224 76.25C573.444 76.25 571.853 76.6383 570.452 77.4148C569.069 78.1723 567.971 79.233 567.156 80.5966C566.361 81.9602 565.963 83.5322 565.963 85.3125V110H553.861ZM618.902 78.8068L607.822 79.4886C607.633 78.5417 607.226 77.6894 606.601 76.9318C605.976 76.1553 605.152 75.5398 604.129 75.0852C603.125 74.6117 601.923 74.375 600.521 74.375C598.646 74.375 597.065 74.7727 595.777 75.5682C594.489 76.3447 593.845 77.3864 593.845 78.6932C593.845 79.7348 594.262 80.6155 595.095 81.3352C595.929 82.0549 597.358 82.6326 599.385 83.0682L607.283 84.6591C611.525 85.5303 614.688 86.9318 616.771 88.8636C618.855 90.7955 619.896 93.3333 619.896 96.4773C619.896 99.3371 619.054 101.847 617.368 104.006C615.701 106.165 613.41 107.85 610.493 109.062C607.595 110.256 604.252 110.852 600.464 110.852C594.688 110.852 590.086 109.65 586.658 107.244C583.249 104.82 581.25 101.525 580.663 97.358L592.567 96.733C592.927 98.4943 593.798 99.839 595.18 100.767C596.563 101.676 598.334 102.131 600.493 102.131C602.614 102.131 604.319 101.723 605.607 100.909C606.913 100.076 607.576 99.0057 607.595 97.6989C607.576 96.6004 607.112 95.7008 606.203 95C605.294 94.2803 603.893 93.7311 601.999 93.3523L594.442 91.8466C590.18 90.9943 587.008 89.517 584.925 87.4148C582.86 85.3125 581.828 82.6326 581.828 79.375C581.828 76.572 582.586 74.1572 584.101 72.1307C585.635 70.1042 587.785 68.5417 590.55 67.4432C593.334 66.3447 596.591 65.7955 600.322 65.7955C605.834 65.7955 610.171 66.9602 613.334 69.2898C616.516 71.6193 618.372 74.7917 618.902 78.8068Z" fill="#131212"/>
<defs>
<linearGradient id="paint0_linear_8_18" x1="90.9811" y1="19" x2="90.9811" y2="128.834" gradientUnits="userSpaceOnUse">
<stop stop-color="#1981E5"/>
<stop offset="1" stop-color="#10B886"/>
</linearGradient>
</defs>
</svg>
